Coordinates
version=1
nRows=20
nColumns=38
inDegrees=no

Units are S.I. units (second, meters, Newtons, ...)
If the header above contains a line with 'inDegrees', this indicates whether rotational values are in degrees (yes) or radians (no).

endheader
time	pelvis_tilt	pelvis_list	pelvis_rotation	pelvis_tx	pelvis_ty	pelvis_tz	hip_flexion_r	hip_adduction_r	hip_rotation_r	knee_angle_r	ankle_angle_r	subtalar_angle_r	mtp_angle_r	hip_flexion_l	hip_adduction_l	hip_rotation_l	knee_angle_l	ankle_angle_l	subtalar_angle_l	mtp_angle_l	lumbar_extension	lumbar_bending	lumbar_rotation	arm_flex_r	arm_add_r	arm_rot_r	elbow_flex_r	pro_sup_r	wrist_flex_r	wrist_dev_r	arm_flex_l	arm_add_l	arm_rot_l	elbow_flex_l	pro_sup_l	wrist_flex_l	wrist_dev_l
25	0.985156	1.53179	0.735678	0.624261	0.382984	1.06338	0.152283	-0.0774672	-0.23508	0.343064	-0.306217	0	0	0.0726364	-0.206131	-0.262822	0.246739	-0.280404	0	0	-0.178336	0.0188495	0.120701	0.572012	-0.782919	0.67757	1.21398	0.285427	0	0	0.652499	-0.397943	0.563093	1.04622	0.540014	0	0
25.01	0.956984	1.52986	0.763056	0.624491	0.381942	1.06296	0.15963	-0.0781009	-0.234793	0.350136	-0.305558	0	0	0.0791643	-0.208113	-0.263163	0.253111	-0.278566	0	0	-0.183242	0.0189357	0.120811	0.576167	-0.781429	0.677457	1.21165	0.286794	0	0	0.654271	-0.396584	0.559763	1.04519	0.542369	0	0
25.02	0.931949	1.52784	0.787308	0.624733	0.380859	1.06249	0.167349	-0.0787678	-0.234365	0.357843	-0.304779	0	0	0.0856561	-0.210123	-0.263462	0.259337	-0.276699	0	0	-0.188559	0.0190218	0.120853	0.58062	-0.779779	0.677675	1.20932	0.288402	0	0	0.656201	-0.395288	0.556319	1.04428	0.544952	0	0
25.03	0.906135	1.52559	0.812228	0.624995	0.379739	1.06196	0.175561	-0.0793789	-0.233594	0.365785	-0.303888	0	0	0.0923398	-0.212241	-0.263907	0.265364	-0.274857	0	0	-0.193977	0.0190398	0.120934	0.585464	-0.778092	0.678751	1.20693	0.29092	0	0	0.658077	-0.393964	0.552483	1.0434	0.547836	0	0
25.04	0.873381	1.52292	0.843905	0.6253	0.378565	1.06132	0.185011	-0.0801226	-0.232546	0.374814	-0.302693	0	0	0.100068	-0.214588	-0.265225	0.272431	-0.272459	0	0	-0.199138	0.0188514	0.12091	0.59096	-0.776074	0.680548	1.20404	0.294777	0	0	0.659488	-0.392748	0.547617	1.04291	0.551807	0	0
25.05	0.847888	1.52051	0.86849	0.625626	0.377379	1.06069	0.193587	-0.0807465	-0.231458	0.382409	-0.30181	0	0	0.106886	-0.216616	-0.265688	0.2781	-0.270549	0	0	-0.204911	0.0185357	0.120825	0.596529	-0.773873	0.681691	1.20058	0.297248	0	0	0.661477	-0.391784	0.543823	1.04229	0.555077	0	0
25.06	0.822144	1.51816	0.893399	0.625987	0.376147	1.06002	0.202563	-0.0816791	-0.230718	0.39082	-0.300929	0	0	0.114018	-0.218592	-0.266229	0.284243	-0.268746	0	0	-0.211153	0.0179909	0.120673	0.602033	-0.771223	0.682474	1.19685	0.30004	0	0	0.663638	-0.390876	0.53987	1.04188	0.558428	0	0
25.07	0.787397	1.51525	0.927205	0.626375	0.3749	1.05922	0.212941	-0.0829207	-0.229912	0.400625	-0.299418	0	0	0.122803	-0.220873	-0.267956	0.29234	-0.266009	0	0	-0.216932	0.0171076	0.120206	0.607718	-0.767918	0.683752	1.19267	0.305685	0	0	0.664935	-0.390136	0.534254	1.04235	0.563096	0	0
25.08	0.769478	1.51296	0.944649	0.626678	0.373675	1.05855	0.220978	-0.0837414	-0.229456	0.407631	-0.29866	0	0	0.1296	-0.222909	-0.268075	0.298	-0.264186	0	0	-0.224181	0.0163947	0.119946	0.612664	-0.76527	0.684352	1.18923	0.309764	0	0	0.667273	-0.389122	0.53014	1.04237	0.566391	0	0
25.09	0.746407	1.51034	0.967323	0.626973	0.372391	1.0578	0.230035	-0.0849646	-0.229374	0.415749	-0.297962	0	0	0.137173	-0.224805	-0.26829	0.304136	-0.26231	0	0	-0.231529	0.015479	0.119551	0.617318	-0.762338	0.683392	1.1857	0.312729	0	0	0.669589	-0.388118	0.525408	1.04271	0.570127	0	0
25.1	0.721307	1.50736	0.992396	0.627182	0.371056	1.05698	0.239804	-0.0865238	-0.229807	0.424468	-0.297247	0	0	0.145512	-0.226541	-0.267888	0.310528	-0.26033	0	0	-0.23885	0.0146195	0.118855	0.62189	-0.759542	0.682352	1.18229	0.31574	0	0	0.671848	-0.386822	0.520157	1.04317	0.574591	0	0
25.11	0.686781	1.50349	1.02716	0.627345	0.36966	1.05598	0.251661	-0.0887135	-0.23067	0.435254	-0.295863	0	0	0.15609	-0.228344	-0.267764	0.318954	-0.257381	0	0	-0.245578	0.0135927	0.117447	0.626671	-0.756309	0.681407	1.17882	0.32117	0	0	0.673149	-0.385582	0.512807	1.04472	0.58102	0	0
25.12	0.653767	1.49963	1.06044	0.62757	0.368275	1.05492	0.263379	-0.0908982	-0.231176	0.445463	-0.294354	0	0	0.166603	-0.230092	-0.267311	0.327086	-0.254666	0	0	-0.252477	0.01225	0.116173	0.631406	-0.753071	0.680306	1.17504	0.325693	0	0	0.674862	-0.384464	0.50634	1.04603	0.587149	0	0
25.13	0.621548	1.49451	1.09286	0.627751	0.367246	1.05365	0.275888	-0.0928056	-0.232831	0.455409	-0.292935	0	0	0.178112	-0.232847	-0.269075	0.335894	-0.251826	0	0	-0.257441	0.011301	0.115149	0.634584	-0.749738	0.678909	1.17127	0.330914	0	0	0.675249	-0.383066	0.499568	1.04726	0.593644	0	0
25.14	0.597147	1.49096	1.11796	0.628021	0.365807	1.05254	0.287377	-0.0952424	-0.233767	0.465771	-0.291722	0	0	0.189148	-0.23524	-0.269931	0.345884	-0.249139	0	0	-0.265614	0.0097181	0.113654	0.639238	-0.74654	0.676869	1.16775	0.334606	0	0	0.67758	-0.381931	0.493245	1.04882	0.599611	0	0
25.15	0.575693	1.48708	1.14041	0.628292	0.364253	1.05137	0.299248	-0.0976498	-0.234806	0.476161	-0.290718	0	0	0.201324	-0.238038	-0.270596	0.357044	-0.246564	0	0	-0.274091	0.0083909	0.111997	0.643908	-0.743537	0.674606	1.16479	0.337941	0	0	0.680227	-0.380808	0.486783	1.05067	0.606092	0	0
25.16	0.55605	1.48301	1.16123	0.628559	0.362631	1.0501	0.311426	-0.100185	-0.235946	0.486785	-0.289663	0	0	0.21418	-0.241025	-0.270989	0.36892	-0.243752	0	0	-0.282683	0.00720886	0.110134	0.648774	-0.740642	0.672727	1.16235	0.342174	0	0	0.68304	-0.379832	0.480322	1.05274	0.612728	0	0
25.17	0.531143	1.47763	1.18717	0.628845	0.360981	1.04857	0.325776	-0.102975	-0.236652	0.498785	-0.28583	0	0	0.229819	-0.244529	-0.27276	0.383824	-0.236987	0	0	-0.290595	0.00613962	0.105778	0.655722	-0.735057	0.671847	1.15916	0.357153	0	0	0.681207	-0.379973	0.465173	1.05884	0.630977	0	0
25.18	0.521568	1.4756	1.1983	0.629075	0.359271	1.04739	0.335366	-0.105988	-0.238567	0.508789	-0.28701	0	0	0.24016	-0.246954	-0.271985	0.3944	-0.237476	0	0	-0.30151	0.00483349	0.106116	0.658995	-0.735194	0.667969	1.15848	0.351923	0	0	0.689306	-0.378217	0.467683	1.05701	0.625828	0	0
25.19	0.499107	1.4698	1.22148	0.629411	0.3576	1.04559	0.3508	-0.108805	-0.238747	0.521876	-0.282457	0	0	0.256691	-0.250908	-0.274358	0.41052	-0.230302	0	0	-0.309285	0.0037013	0.102227	0.665742	-0.729833	0.666166	1.15572	0.36509	0	0	0.687971	-0.378596	0.453683	1.06316	0.642543	0	0
